# xmcd CD database file
#
# Track frame offsets:
#	150
#	28175
#	52560
#	79260
#	101362
#	133127
#	175250
#	196180
#	220907
#
# Disc length: 3568 seconds
#
# Revision: 0
# Processed by: cddbd v1.5.1PL0 Copyright (c) Steve Scherf et al.
# Submitted via: CDex 1.51
#
DISCID=720dee09
DTITLE=Gerald Wilson Orchestra of the 80's - Calafia
DYEAR=1985
DGENRE=Blues
TTITLE0=Prince Albert
TTITLE1=Calafia
TTITLE2=Eloy
TTITLE3=The Redd Foxx
TTITLE4=3/4 for Mayor Tom
TTITLE5=Viva Tirado '85
TTITLE6=Polygon
TTITLE7=Jessica
TTITLE8=Blues Bones And Bobby
EXTD=YEAR: 1985
EXTT0=
EXTT1=
EXTT2=
EXTT3=
EXTT4=
EXTT5=
EXTT6=
EXTT7=
EXTT8=
PLAYORDER=
